<svg width="200" height="200" viewBox="0 0 200 200" xmlns="http://www.w3.org/2000/svg">
  <defs>
    <linearGradient id="serviceGrad" x1="0%" y1="0%" x2="100%" y2="100%">
      <stop offset="0%" style="stop-color:#00d4ff;stop-opacity:0.8" />
      <stop offset="100%" style="stop-color:#a855f7;stop-opacity:0.8" />
    </linearGradient>
    <filter id="glow">
      <feGaussianBlur stdDeviation="2" result="coloredBlur"/>
      <feMerge> 
        <feMergeNode in="coloredBlur"/>
        <feMergeNode in="SourceGraphic"/>
      </feMerge>
    </filter>
  </defs>
  
  <!-- Main icon -->
  <g filter="url(#glow)">
    <!-- Circuit board -->
    <rect x="40" y="40" width="120" height="120" rx="10" fill="url(#serviceGrad)" opacity="0.9"/>
    
    <!-- Circuit lines -->
    <path d="M 60 80 L 140 80" stroke="#ffffff" stroke-width="2" opacity="0.8"/>
    <path d="M 60 100 L 140 100" stroke="#ffffff" stroke-width="2" opacity="0.8"/>
    <path d="M 60 120 L 140 120" stroke="#ffffff" stroke-width="2" opacity="0.8"/>
    
    <!-- Vertical connections -->
    <path d="M 80 60 L 80 140" stroke="#ffffff" stroke-width="2" opacity="0.8"/>
    <path d="M 120 60 L 120 140" stroke="#ffffff" stroke-width="2" opacity="0.8"/>
    
    <!-- Nodes -->
    <circle cx="80" cy="80" r="3" fill="#ffffff"/>
    <circle cx="120" cy="80" r="3" fill="#ffffff"/>
    <circle cx="80" cy="100" r="3" fill="#ffffff"/>
    <circle cx="120" cy="100" r="3" fill="#ffffff"/>
    <circle cx="80" cy="120" r="3" fill="#ffffff"/>
    <circle cx="120" cy="120" r="3" fill="#ffffff"/>
    
    <!-- Central processor -->
    <circle cx="100" cy="100" r="15" fill="#ffffff" opacity="0.9"/>
    <circle cx="100" cy="100" r="8" fill="url(#serviceGrad)"/>
  </g>
  
  <!-- Floating particles -->
  <circle cx="30" cy="30" r="2" fill="#00d4ff" opacity="0.6">
    <animate attributeName="opacity" values="0.6;0.2;0.6" dur="2s" repeatCount="indefinite"/>
  </circle>
  <circle cx="170" cy="170" r="2" fill="#a855f7" opacity="0.6">
    <animate attributeName="opacity" values="0.6;0.2;0.6" dur="3s" repeatCount="indefinite"/>
  </circle>
</svg>
