<svg width="200" height="200" viewBox="0 0 200 200" xmlns="http://www.w3.org/2000/svg">
  <defs>
    <linearGradient id="avatarGrad" x1="0%" y1="0%" x2="100%" y2="100%">
      <stop offset="0%" style="stop-color:#00d4ff;stop-opacity:0.9" />
      <stop offset="100%" style="stop-color:#a855f7;stop-opacity:0.9" />
    </linearGradient>
    <filter id="avatarGlow">
      <feGaussianBlur stdDeviation="3" result="coloredBlur"/>
      <feMerge> 
        <feMergeNode in="coloredBlur"/>
        <feMergeNode in="SourceGraphic"/>
      </feMerge>
    </filter>
  </defs>
  
  <!-- Background circle -->
  <circle cx="100" cy="100" r="90" fill="url(#avatarGrad)" filter="url(#avatarGlow)"/>
  
  <!-- Person silhouette -->
  <g fill="#ffffff" opacity="0.9">
    <!-- Head -->
    <circle cx="100" cy="70" r="25"/>
    
    <!-- Body -->
    <path d="M 60 100 Q 100 120 140 100 L 140 180 Q 100 200 60 180 Z"/>
    
    <!-- Arms -->
    <path d="M 60 100 Q 40 120 45 140 Q 50 160 70 150 Q 80 140 75 120 Z"/>
    <path d="M 140 100 Q 160 120 155 140 Q 150 160 130 150 Q 120 140 125 120 Z"/>
  </g>
  
  <!-- Decorative elements -->
  <circle cx="50" cy="50" r="3" fill="#00d4ff" opacity="0.6">
    <animate attributeName="opacity" values="0.6;0.2;0.6" dur="2s" repeatCount="indefinite"/>
  </circle>
  <circle cx="150" cy="50" r="3" fill="#a855f7" opacity="0.6">
    <animate attributeName="opacity" values="0.6;0.2;0.6" dur="3s" repeatCount="indefinite"/>
  </circle>
  <circle cx="50" cy="150" r="3" fill="#00d4ff" opacity="0.6">
    <animate attributeName="opacity" values="0.6;0.2;0.6" dur="4s" repeatCount="indefinite"/>
  </circle>
  <circle cx="150" cy="150" r="3" fill="#a855f7" opacity="0.6">
    <animate attributeName="opacity" values="0.6;0.2;0.6" dur="5s" repeatCount="indefinite"/>
  </circle>
</svg>
